<?xml version="1.0" encoding="UTF-8"?>
<svg width="24px" height="19px" viewBox="0 0 24 19" version="1.1" xmlns="http://www.w3.org/2000/svg" xmlns:xlink="http://www.w3.org/1999/xlink">
    <!-- Generator: Sketch 52.6 (67491) - http://www.bohemiancoding.com/sketch -->
    <title>back-arrow-light</title>
    <desc>Created with Sketch.</desc>
    <g id="Page-1" stroke="none" stroke-width="1" fill="none" fill-rule="evenodd">
        <g id="Error-Copy" transform="translate(-425.000000, -344.000000)" fill="#C3C5D3">
            <g id="left-arrow-(4)" transform="translate(425.000000, 344.000000)">
                <path d="M22.6509271,7.70615585 L22.6883905,7.7139669 L6.62868671,7.7139669 L11.677271,2.89138925 C11.9244904,2.65594198 12.0601002,2.33699089 12.0601002,2.00223173 C12.0601002,1.66747257 11.9244904,1.35075321 11.677271,1.114748 L10.8917102,0.365631393 C10.6446858,0.130184118 10.3155152,0 9.96449086,0 C9.61327143,0 9.28390564,0.129254231 9.03688131,0.364701506 L0.382639291,8.61260926 C0.134639345,8.84898642 -0.000970381961,9.16384601 5.2275824e-06,9.49879115 C-0.000970381961,9.83559606 0.134639345,10.1506416 0.382639291,10.3866468 L9.03688131,18.6352985 C9.28390564,18.8705598 9.6130763,19 9.96449086,19 C10.3155152,19 10.6446858,18.8703738 10.8917102,18.6352985 L11.677271,17.8861819 C11.9244904,17.6511066 12.0601002,17.3371769 12.0601002,17.0024177 C12.0601002,16.6678445 11.9244904,16.3704668 11.677271,16.1352055 L6.57171111,11.2856611 L22.6688783,11.2856611 C23.3921953,11.2856611 24,10.6914636 24,10.0024177 L24,8.94290497 C24,8.25385903 23.374244,7.70615585 22.6509271,7.70615585 Z" id="back-arrow-light"></path>
            </g>
        </g>
    </g>
</svg>