<?xml version="1.0" encoding="UTF-8"?>
<svg width="24px" height="19px" viewBox="0 0 24 19" version="1.1" xmlns="http://www.w3.org/2000/svg" xmlns:xlink="http://www.w3.org/1999/xlink">
    <!-- Generator: Sketch 52.6 (67491) - http://www.bohemiancoding.com/sketch -->
    <title>back-arrow</title>
    <desc>Created with Sketch.</desc>
    <g id="Page-1" stroke="none" stroke-width="1" fill="none" fill-rule="evenodd">
        <g id="Valid" transform="translate(-425.000000, -344.000000)" fill="#4D516F">
            <path d="M447.650927,351.706156 L447.688391,351.713967 L431.628687,351.713967 L436.677271,346.891389 C436.92449,346.655942 437.0601,346.336991 437.0601,346.002232 C437.0601,345.667473 436.92449,345.350753 436.677271,345.114748 L435.89171,344.365631 C435.644686,344.130184 435.315515,344 434.964491,344 C434.613271,344 434.283906,344.129254 434.036881,344.364702 L425.382639,352.612609 C425.134639,352.848986 424.99903,353.163846 425.000005,353.498791 C424.99903,353.835596 425.134639,354.150642 425.382639,354.386647 L434.036881,362.635298 C434.283906,362.87056 434.613076,363 434.964491,363 C435.315515,363 435.644686,362.870374 435.89171,362.635298 L436.677271,361.886182 C436.92449,361.651107 437.0601,361.337177 437.0601,361.002418 C437.0601,360.667845 436.92449,360.370467 436.677271,360.135206 L431.571711,355.285661 L447.668878,355.285661 C448.392195,355.285661 449,354.691464 449,354.002418 L449,352.942905 C449,352.253859 448.374244,351.706156 447.650927,351.706156 Z" id="back-arrow"></path>
        </g>
    </g>
</svg>