<?xml version="1.0" encoding="UTF-8"?>
<svg width="84px" height="84px" viewBox="0 0 84 84" version="1.1" xmlns="http://www.w3.org/2000/svg" xmlns:xlink="http://www.w3.org/1999/xlink">
    <!-- Generator: Sketch 52.6 (67491) - http://www.bohemiancoding.com/sketch -->
    <title>error-icon</title>
    <desc>Created with Sketch.</desc>
    <g id="Page-1" stroke="none" stroke-width="1" fill="none" fill-rule="evenodd">
        <g id="Error" transform="translate(-759.000000, -441.000000)" fill-rule="nonzero">
            <g id="Group-6" transform="translate(601.000000, 441.000000)">
                <g id="Group-3">
                    <g id="error-icon" transform="translate(158.000000, 0.000000)">
                        <g id="Group-4">
                            <circle id="Oval" fill="#2C3054" opacity="0.695242746" cx="42" cy="42" r="42"></circle>
                            <circle id="Oval" fill="#3C4169" opacity="0.695242746" cx="42" cy="42" r="26"></circle>
                            <g id="error-triangle" transform="translate(31.022222, 31.177778)">
                                <g id="Group-5">
                                    <rect id="Rectangle" fill="#FFFFFF" x="8.08888889" y="5.77777778" width="5.77777778" height="13.8666667"></rect>
                                    <path d="M22.9400239,18.1329339 L22.9407163,18.1342373 C23.3853124,18.9723289 23.3601059,19.9827808 22.8732553,20.7951305 C22.3850998,21.612182 21.505977,22.1117586 20.5547548,22.1117586 L1.37834619,22.1117586 C0.429047643,22.1117586 -0.450967045,21.6113838 -0.939882876,20.7955845 C-1.42631084,19.9821636 -1.44997372,18.9723263 -1.00300418,18.1293628 L8.60695335,0.143097247 C9.07665988,-0.737091752 9.99115199,-1.28731751 10.9886195,-1.28731751 L10.9899803,-1.28731751 C11.988407,-1.28731751 12.9052762,-0.734634413 13.3724823,0.146031521 L22.9400239,18.1329339 Z" id="Path" stroke="#FFFFFF" stroke-width="2.645"></path>
                                </g>
                                <path d="M21.7724263,18.7539991 L12.2048847,0.767096718 C11.9663221,0.317416193 11.498814,0.0351824945 10.9899803,0.0351824945 L10.9886195,0.0351824945 C10.4797859,0.0351824945 10.0136839,0.316050766 9.77371515,0.765731291 L0.163441873,18.7525882 C-0.0654584022,19.1842906 -0.0530743802,19.7017418 0.195150413,20.1168315 C0.444736088,20.5332867 0.894325987,20.7892586 1.37834619,20.7892586 L20.5547548,20.7892586 C21.0401813,20.7892586 21.4883196,20.5346521 21.7379506,20.1168315 C21.9875363,19.7003764 21.9999657,19.1829252 21.7724263,18.7539991 Z M10.9886195,18.0220394 C10.2273877,18.0220394 9.6096382,17.4021812 9.6096382,16.6384525 C9.6096382,15.8747239 10.2274331,15.2548656 10.9886195,15.2548656 C11.748445,15.2548656 12.3676007,15.8747239 12.3676007,16.6384525 C12.3676007,17.4021812 11.7498512,18.0220394 10.9886195,18.0220394 Z M12.369007,12.5097663 C12.369007,13.2749059 11.7498512,13.8933532 10.9900257,13.8933532 C10.2287939,13.8933532 9.61104444,13.2748604 9.61104444,12.5097663 L9.61104444,6.97532779 C9.61104444,6.21155361 10.2288393,5.59174092 10.9900257,5.59174092 C11.7498512,5.59174092 12.369007,6.21159912 12.369007,6.97532779 L12.369007,12.5097663 Z" id="Shape" fill="#F55623"></path>
                            </g>
                        </g>
                    </g>
                </g>
            </g>
        </g>
    </g>
</svg>