<?xml version="1.0" encoding="UTF-8"?>
<svg width="26px" height="24px" viewBox="0 0 26 24" version="1.1" xmlns="http://www.w3.org/2000/svg" xmlns:xlink="http://www.w3.org/1999/xlink">
    <!-- Generator: Sketch 52.6 (67491) - http://www.bohemiancoding.com/sketch -->
    <title>Group 7</title>
    <desc>Created with Sketch.</desc>
    <g id="Page-1" stroke="none" stroke-width="1" fill="none" fill-rule="evenodd">
        <g id="Error" transform="translate(-788.000000, -471.000000)">
            <g id="Group-6" transform="translate(601.000000, 441.000000)">
                <g id="Group-3">
                    <g id="error-icon" transform="translate(158.000000, 0.000000)">
                        <g id="Group-4">
                            <g id="Group-7" transform="translate(31.000000, 32.000000)">
                                <path d="M22.7122754,17.5543413 L22.7128272,17.5553395 C23.1164285,18.2863287 23.093422,19.172435 22.652025,19.8800704 C22.2176614,20.5785879 21.4458312,21 20.6160951,21 L1.38246671,21 C0.554633489,21 -0.218276973,20.5777522 -0.653247938,19.8804163 C-1.09411389,19.1720857 -1.11571306,18.2864532 -0.710020336,17.5513275 L8.92867707,0.218455736 C9.3473442,-0.535335079 10.151141,-1 11.0214157,-1 L11.0227807,-1 C11.8937863,-1 12.6997549,-0.533212152 13.1161855,0.220972899 L22.7122754,17.5543413 Z" id="Path" stroke="#FFFFFF" stroke-width="2" fill="#F55623" fill-rule="nonzero"></path>
                                <path d="M12.1528597,14.9999925 C12.3088629,14.9999925 12.4440446,15.0539628 12.5581524,15.1619332 C12.6721657,15.2699335 12.7293616,15.397695 12.7293616,15.5454267 L12.7293616,17.4544763 C12.7293616,17.602208 12.6722603,17.7300889 12.5583733,17.8381787 C12.4441392,17.9459402 12.3089575,18 12.153049,18 L9.84701019,18 C9.69081776,18 9.55582535,17.9459402 9.4415913,17.8381787 C9.32754653,17.730059 9.27047682,17.6021781 9.27047682,17.4544763 L9.27047682,15.5454267 C9.27047682,15.3976652 9.32754653,15.2699037 9.4415913,15.1619332 C9.55573071,15.0540524 9.69084931,14.9999925 9.84701019,14.9999925 L12.1528597,14.9999925 Z M12.8418605,6.16191085 C12.9529713,6.27000067 13.0057506,6.39779203 12.9995041,6.54549389 L12.747533,13.0907341 C12.741255,13.2384658 12.6799579,13.3664661 12.5629161,13.4742275 C12.4455589,13.5823174 12.3089891,13.6363474 12.1530806,13.6363474 L9.84704174,13.6363474 C9.69088085,13.6363474 9.55427951,13.5823174 9.43720617,13.4742275 C9.32006973,13.3664362 9.25858336,13.2384359 9.2525893,13.0907341 L9.00046046,6.54549389 C8.9944664,6.39779203 9.04699324,6.26988127 9.15807253,6.16191085 C9.26921492,6.05408969 9.40272459,6 9.55882238,6 L12.4409845,6 C12.5972084,6 12.7307812,6.05408969 12.8418605,6.16191085 Z" id="Combined-Shape" fill="#FFFFFF"></path>
                            </g>
                        </g>
                    </g>
                </g>
            </g>
        </g>
    </g>
</svg>