<?xml version="1.0" encoding="UTF-8"?>
<svg width="24px" height="24px" viewBox="0 0 24 24" version="1.1" xmlns="http://www.w3.org/2000/svg" xmlns:xlink="http://www.w3.org/1999/xlink">
    <!-- Generator: Sketch 52.6 (67491) - http://www.bohemiancoding.com/sketch -->
    <title>success-icon-single</title>
    <desc>Created with Sketch.</desc>
    <g id="Page-1" stroke="none" stroke-width="1" fill="none" fill-rule="evenodd">
        <g id="Valid" transform="translate(-732.000000, -335.000000)" fill="#83C33D" fill-rule="nonzero" stroke="#FFFFFF" stroke-width="2.64">
            <g id="Group-8" transform="translate(538.000000, 324.000000)">
                <g id="Group-4" transform="translate(197.000000, 13.000000)">
                    <g id="success-icon-single" transform="translate(0.000000, 1.000000)">
                        <path d="M9,-1.32 C14.6992629,-1.32 19.32,3.30073714 19.32,9 C19.32,14.6992629 14.6992629,19.32 9,19.32 C3.30073714,19.32 -1.32,14.6992629 -1.32,9 C-1.32,3.30073714 3.30073714,-1.32 9,-1.32 Z M8.64507808,12.9600017 L8.85827106,13.0994848 L8.70381575,12.8702152 L12.9553798,6.37126444 C12.7937067,6.61759184 12.4654733,6.68637439 12.2189839,6.52536158 C11.9726648,6.36417938 11.9033506,6.03344433 12.0657149,5.78606647 L12.0646601,5.78767612 L8.10253202,11.8435932 L6.06450124,9.95904638 C6.28044197,10.1590291 6.29361625,10.495687 6.09309117,10.7122984 C5.89351901,10.9278564 5.55808061,10.9412185 5.34200705,10.7418784 L7.15757591,12.4214112 L7.81402543,13.028674 L7.67821128,13.2490718 L7.85066732,13.0625704 L7.86602392,13.0767763 L7.76705734,13.3267325 L7.94451185,13.1493833 L8.03621843,13.2342184 L8.00442854,13.4201093 L8.06627797,13.2620257 L8.13324715,13.3239769 L8.13606938,13.4426217 L8.15320235,13.3424369 L8.30377132,13.481724 L8.37913008,13.3665304 L8.40154566,13.4201093 L8.38633253,13.3555208 L8.51135178,13.164416 L8.62203257,13.3278652 L8.53715165,13.1249783 L8.5709408,13.0733281 L8.79190199,13.2063832 L8.62999727,12.9830543 L8.64507808,12.9600017 Z" id="Shape"></path>
                    </g>
                </g>
            </g>
        </g>
    </g>
</svg>