<?xml version="1.0" encoding="UTF-8"?>
<svg width="84px" height="84px" viewBox="0 0 84 84" version="1.1" xmlns="http://www.w3.org/2000/svg" xmlns:xlink="http://www.w3.org/1999/xlink">
    <!-- Generator: Sketch 52.6 (67491) - http://www.bohemiancoding.com/sketch -->
    <title>success-icon</title>
    <desc>Created with Sketch.</desc>
    <g id="Page-1" stroke="none" stroke-width="1" fill="none" fill-rule="evenodd">
        <g id="Download" transform="translate(-759.000000, -454.000000)" fill-rule="nonzero">
            <g id="Group-5" transform="translate(607.000000, 454.000000)">
                <g id="Group-2">
                    <g id="success-icon" transform="translate(152.000000, 0.000000)">
                        <circle id="Oval" fill="#2C3054" opacity="0.695242746" cx="42" cy="42" r="42"></circle>
                        <circle id="Oval" fill="#3C4169" opacity="0.695242746" cx="42" cy="42" r="26"></circle>
                        <g id="check-sign" transform="translate(32.000000, 32.000000)" fill="#83C33D" stroke="#FFFFFF" stroke-width="2.64">
                            <path d="M10,-1.32 C16.2515125,-1.32 21.32,3.74848747 21.32,10 C21.32,16.2515125 16.2515125,21.32 10,21.32 C3.74848747,21.32 -1.32,16.2515125 -1.32,10 C-1.32,3.74848747 3.74848747,-1.32 10,-1.32 Z M9.53844375,14.3560367 L9.8425234,14.5549831 L9.58198847,14.1682516 L14.2721304,6.99888971 C14.1369602,7.20483741 13.8629756,7.2622519 13.6568585,7.12761124 C13.4510426,6.99293294 13.3930978,6.71644731 13.5289651,6.50944018 L13.5279103,6.51104984 L9.03058536,13.384989 L6.63875987,11.1732916 C6.81922181,11.3404173 6.83022928,11.6217042 6.6624729,11.8029182 C6.49567361,11.9830783 6.21561345,11.9942344 6.03501421,11.8276213 L8.0524591,13.6939039 L8.76066856,14.3490484 L8.53134587,14.7211909 L8.76373279,14.4698776 L8.63006371,14.8074805 L8.93105492,14.506668 L8.95863277,14.5321794 L8.89380949,14.9112326 L9.01992766,14.5888816 L9.03208169,14.6001249 L9.04007709,14.9362464 L9.08861491,14.6524222 L9.19865451,14.7542167 L9.20579095,14.743308 L9.25005899,14.9312515 L9.24443035,14.6946269 L9.33505074,14.9112326 L9.27174974,14.6424832 L9.36791437,14.4954857 L9.58003618,14.8087391 L9.44098551,14.4763728 L9.76877999,14.6737591 L9.53844375,14.3560367 Z" id="Shape"></path>
                        </g>
                    </g>
                </g>
            </g>
        </g>
    </g>
</svg>