<?xml version="1.0" encoding="UTF-8"?>
<svg width="24px" height="24px" viewBox="0 0 24 24" version="1.1" xmlns="http://www.w3.org/2000/svg" xmlns:xlink="http://www.w3.org/1999/xlink">
    <!-- Generator: Sketch 52.6 (67491) - http://www.bohemiancoding.com/sketch -->
    <title>Group 9</title>
    <desc>Created with Sketch.</desc>
    <g id="Page-1" stroke="none" stroke-width="1" fill="none" fill-rule="evenodd">
        <g id="Valid" transform="translate(-695.000000, -334.000000)">
            <g id="Group-8" transform="translate(538.000000, 324.000000)">
                <g id="Group-5" transform="translate(133.000000, 0.000000)">
                    <g id="Group-4" transform="translate(24.000000, 10.000000)">
                        <g id="Group-9">
                            <circle id="Oval" stroke="#FFFFFF" stroke-width="2" fill="#83C33D" fill-rule="nonzero" cx="12" cy="12" r="11"></circle>
                            <path d="M11.4319162,16.5895163 C10.887858,17.1368279 10.0050765,17.1368279 9.46128093,16.5895163 L6.40804359,13.5180207 C5.86398547,12.9709732 5.86398547,12.0829127 6.40804359,11.5358652 C6.95183913,10.9885537 7.83462069,10.9885537 8.3786788,11.5358652 L10.1978075,13.3656081 C10.3351349,13.5034926 10.5580622,13.5034926 10.6956522,13.3656081 L15.6213212,8.41048368 C16.1651167,7.86317211 17.0478983,7.86317211 17.5919564,8.41048368 C17.8532198,8.67330946 18,9.02990726 18,9.4015614 C18,9.77321554 17.8532198,10.1298133 17.5919564,10.3926391 L11.4319162,16.5895163 Z" id="Path" fill="#FFFFFF"></path>
                        </g>
                    </g>
                </g>
            </g>
        </g>
    </g>
</svg>